<svg xmlns="http://www.w3.org/2000/svg" width="56" height="47" viewBox="0 0 56 47"><g><g><g><path fill="#7bb515" d="M30.571 2.994l13.435 13.435c3.905 3.905 3.905 10.237 0 14.142L30.571 44.006c-3.905 3.905-10.237 3.905-14.142 0L2.994 30.57c-3.905-3.905-3.905-10.237 0-14.142L16.429 2.994c3.905-3.905 10.237-3.905 14.142 0z"/></g><g><path fill="#fff" d="M44.82 9.98l9.177 9.179a6.831 6.831 0 0 1 0 9.66l-9.177 9.178a6.83 6.83 0 0 1-9.661 0L25.98 28.82a6.831 6.831 0 0 1 0-9.661L35.16 9.98a6.831 6.831 0 0 1 9.66 0z"/></g></g></g></svg>