<svg xmlns="http://www.w3.org/2000/svg" width="100" height="100" viewBox="0 0 100 100"><g><g><path fill="#fff" d="M50 100C22.429 100 0 77.57 0 50S22.429 0 50 0c27.57 0 50 22.43 50 50s-22.43 50-50 50zm0-95.652C24.828 4.348 4.348 24.827 4.348 50c0 25.173 20.48 45.652 45.652 45.652S95.652 75.172 95.652 50c0-25.173-20.48-45.652-45.652-45.652z"/></g><g><path fill="#7bb515" d="M39.13 73.37a2.171 2.171 0 0 1-2.174-2.175V28.804a2.173 2.173 0 0 1 3.478-1.739l28.26 21.196a2.172 2.172 0 0 1 0 3.478l-28.26 21.195a2.17 2.17 0 0 1-1.304.435zm2.174-40.218v33.696L63.767 50z"/></g></g></svg>